<?xml version="1.0" encoding="utf-8"?>
<!-- Generator: Adobe Illustrator 27.5.0, SVG Export Plug-In . SVG Version: 6.00 Build 0)  -->
<svg version="1.1" id="Layer_1" xmlns="http://www.w3.org/2000/svg" xmlns:xlink="http://www.w3.org/1999/xlink" x="0px" y="0px"
	 viewBox="0 0 448 512" style="enable-background:new 0 0 448 512;" xml:space="preserve">
<style type="text/css">
	.st0{fill:#064B5A;}
</style>
<path class="st0" d="M224,256c-70.7,0-128-57.3-128-128S153.3,0,224,0s128,57.3,128,128S294.7,256,224,256z M209.1,359.2l-18.6-31
	c-6.4-10.7,1.3-24.2,13.7-24.2H224h19.7c12.4,0,20.1,13.6,13.7,24.2l-18.6,31l33.4,123.9l36-146.9c2-8.1,9.8-13.4,17.9-11.3
	c70.1,17.6,121.9,81,121.9,156.4c0,17-13.8,30.7-30.7,30.7H285.5c-2.1,0-4-0.4-5.8-1.1l0.3,1.1H168l0.3-1.1
	c-1.8,0.7-3.8,1.1-5.8,1.1H30.7C13.8,512,0,498.2,0,481.3c0-75.5,51.9-138.9,121.9-156.4c8.1-2,15.9,3.3,17.9,11.3l36,146.9
	l33.4-123.9L209.1,359.2z"/>
</svg>
